<svg id="Layer_1" data-name="Layer 1" xmlns="http://www.w3.org/2000/svg" viewBox="0 0 400.111 347.681"><defs><style>.cls-1{fill:#fff;}.cls-2,.cls-3{fill:#1a1a1a;stroke:#1a1a1a;}.cls-2,.cls-3,.cls-4{stroke-miterlimit:10;}.cls-2,.cls-4{stroke-width:0.5px;}.cls-4,.cls-5{fill:#ffb94b;}.cls-4{stroke:#ffb94b;}</style></defs><title>Logo til fixedyournet</title><polygon class="cls-1" points="133.656 156.775 133.656 158.535 132.445 158.535 132.765 158.065 133.656 156.775"/><rect class="cls-1" x="262.079" y="135.726" width="30.404" height="35.667"/><rect class="cls-1" x="240.15" y="213.639" width="36.71" height="36.71"/><path class="cls-1" d="M309.615,205.185v9.45h26.45v13.53h1l10.85,0.03v23.44l-10.82-.03h-1v10.87c0,8.09,4.7,9.99,7.5,10.4l0.08,0.01h0.06l4.17,0.06,0.01,7.61v14.93h-10.34c-9.79,0-17.64-4.04-22.1-11.38l-0.65-1.07-0.9.87-1.89,1.83a36.516,36.516,0,0,1-24.09,9.36h-127.3v-31.12h27.54v-37.45l-1.45.73a42.153,42.153,0,0,1-19.04,4.18c-20.03,0-33.98-10.79-37.3-28.87l-0.63-3.48-1.28,3.3-8.57,22.12-12.94,33.07-36.15.26,12.95-33.19,0.14-.35-0.13-.36-20.88-55.3v-53.7H52.2V81.945h10.93l0.1-.89c2.05-18.07,13.66-28.86,31.05-28.86,6.71,0,12.27.92,16.52,2.75l5.98,2.56,0.56,0.24,0.47-.39a20.29,20.29,0,0,1,13.16-4.57c11.57,0,20.3,8.58,20.3,19.95a20.187,20.187,0,0,1-1.58,7.98l-0.08.19v1.51h27.75l5.49,7.14,0.8,1.05,0.79-1.06,5.29-7.13h58.03c1,0,1.91.03,2.8,0.1,12.27,0.8,22.17,6.95,27.16,16.86l0.8,1.59,0.94-1.51c6.66-10.66,17.45-17.08,30.38-18.09l0.92-.08V53.845h37.16v103.69h-16.14l-0.14.83-5.56,33.08a13.324,13.324,0,0,0-5.95-1.98h-0.1C309.615,189.465,309.615,198.185,309.615,205.185Z"/><path class="cls-2" d="M167.69,222.439c-15.946,0-29.037-8.806-29.037-28.323,0-18.684,11.067-31.179,29.989-31.179,19.517,0,28.68,12.614,28.68,28.561C197.322,211.847,185.185,222.439,167.69,222.439Zm0-43.793c-6.069,0-8.926,5.95-8.926,12.852,0,7.735,1.9,15.232,9.878,15.232,6.426,0,8.567-5.593,8.567-12.614C177.21,185.072,175.782,178.646,167.69,178.646Z"/><path class="cls-2" d="M210.172,164.127h19.159v34.511c0,5.593.953,8.331,4.88,8.331,7.974,0,11.306-9.044,11.306-20.112V164.127h19.277v57.122H245.517V213.99a20.2,20.2,0,0,1-16.423,8.449c-12.614,0-18.922-6.545-18.922-21.3v-37.01Z"/><path class="cls-2" d="M312.394,181.264c-9.759,0-11.781,7.021-11.781,14.994v24.991h-19.16V164.127h19.041v6.9c3.213-5.474,8.33-8.092,14.756-8.092a17.021,17.021,0,0,1,6.308,1.19l-3.095,18.564A16.246,16.246,0,0,0,312.394,181.264Z"/><path class="cls-2" d="M70.823,164.127H91.53l11.781,35.344,11.424-35.344h18.922l-22.135,57.122-10.71,27.371-16.779.119,9.521-24.4Z"/><polygon class="cls-1" points="133.656 156.775 133.656 158.535 132.445 158.535 132.765 158.065 133.656 156.775"/><path class="cls-2" d="M180.76,132.348l-10.71,16.185H151.485l20.35-29.513L153.271,91.411h21.3l9.283,13.566,8.806-13.566h18.564L192.66,118.305l20.35,30.227h-21.3Z"/><path class="cls-2" d="M269.963,144.367a50.983,50.983,0,0,1-22.491,5.355c-18.089,0-31.061-9.044-31.061-28.917,0-19.16,12.615-30.584,30.346-30.584,14.757,0,24.4,9.163,24.4,23.206a80.211,80.211,0,0,1-1.071,12.5H235.81c0.476,6.426,5.949,10,13.447,10a38.646,38.646,0,0,0,15.945-3.689Zm-17.255-31.179c0.594-5.355-2.023-9.64-7.617-9.64-5.83,0-8.925,4.76-9.281,9.64h16.9Z"/><path class="cls-3" d="M319.87,148.532V142.82a19.669,19.669,0,0,1-14.519,6.9c-15.589,0-23.324-10.829-23.324-27.847,0-15.828,10.829-31.655,31.536-31.655a35.2,35.2,0,0,1,6.188.595V62.85h19.16v85.682H319.87Zm-0.119-41.294a16.944,16.944,0,0,0-6.664-1.309c-7.021,0-10.948,6.426-10.948,13.685,0,7.735,1.666,14.4,7.616,14.4,4.641,0,10-4.879,10-15.827V107.239Z"/><path class="cls-2" d="M71.9,148.065V105.938H61.195V90.944H71.9V87.016c0-14.161,5.95-25.824,22.373-25.824,4.879,0,9.639.6,12.971,2.023l-2.5,14.756A23.321,23.321,0,0,0,98.561,76.9c-5.235,0-7.5,2.737-7.5,7.616v6.426h13.209v14.995H91.065v42.127H71.9Z"/><polygon class="cls-1" points="133.656 156.775 133.656 158.065 132.765 158.065 133.656 156.775"/><path class="cls-2" d="M130.965,83.565c-6.187,0-11.187-4.046-11.187-10.829,0-6.069,4.284-10.948,11.187-10.948,6.426,0,11.3,4.284,11.3,10.948S137.391,83.565,130.965,83.565Zm9.639,64.5H121.446V90.944H140.6v57.122Z"/><path class="cls-2" d="M169.643,272.977h12.806V286.1H169.643V272.977Z"/><path class="cls-4" d="M197.674,280.651h8.27v-35.9a1.9,1.9,0,0,0-2.141-2.141h-6.615v-5.448h9.34c4.086,0,5.935,1.751,5.935,5.448v2.822a16.037,16.037,0,0,1-.39,3.5h0.2a21.662,21.662,0,0,1,19.944-12.939c12.063,0,16.247,6.908,16.247,18.972v25.685h8.27V286.1H241.844V256.717c0-7.686-1.266-14.5-10.7-14.5-10.8,0-18.583,9.535-18.583,20.334v18.1h8.27V286.1H197.674v-5.448Z"/><path class="cls-4" d="M286.207,235.994c13.523,0,20.528,10.41,20.528,22.571a27.6,27.6,0,0,1-.292,3.113H268.89c0.292,12.551,8.854,19.653,18.972,19.653a22.92,22.92,0,0,0,14.886-5.837l3.016,4.962a27.734,27.734,0,0,1-18.1,6.81c-14.594,0-25.588-10.507-25.588-25.587C262.079,245.626,272.976,235.994,286.207,235.994Zm13.621,20.82c-0.39-10.313-6.616-15.274-13.815-15.274-8.172,0-15.274,5.351-16.831,15.274h30.646Z"/><path class="cls-4" d="M320.453,242.61H311.7v-5.448h8.854V223.639h6.519v13.523h12.355v5.448H327.068v25.1c0,11.48,7.3,13.037,11.091,13.037a11.381,11.381,0,0,0,2.238-.194v5.74a18.959,18.959,0,0,1-2.821.195c-5.644,0-17.123-1.849-17.123-18.193V242.61Z"/><path class="cls-1" d="M250.616,81.415v0.1c-0.94-.07-1.89-0.1-2.86-0.1h2.86Z"/><path class="cls-5" d="M130.963,83.88c-6.366,0-11.51-4.163-11.51-11.142,0-6.245,4.408-11.264,11.51-11.264,6.611,0,11.631,4.408,11.631,11.264S137.575,83.88,130.963,83.88Z"/></svg>