<svg id="Layer_1" data-name="Layer 1" xmlns="http://www.w3.org/2000/svg" viewBox="0 0 402.111 349.691"><defs><style>.cls-1{fill:#1a1a1a;}.cls-2{fill:#fff;}.cls-3{fill:#95A3A4;}</style></defs><title>Logo til fixedyournet</title><path class="cls-1" d="M190.005,228.165c-0.59.34-1.2,0.67-1.82,0.98v-0.98h1.82Z"/><polygon class="cls-1" points="134.655 157.785 134.655 159.535 133.445 159.535 133.765 159.065 134.655 157.785"/><path class="cls-1" d="M311.615,206.2v8.45h26.45v13.52l11.85,0.03v25.45l-11.82-.03v9.86c0,7.08,3.79,9,6.65,9.42h0.01l5.15,0.08,0.01,8.58V297.5h-11.34c-10.35,0-18.4-4.37-22.95-11.87l-1.89,1.84a37.629,37.629,0,0,1-24.79,9.64h-128.3v-33.12h27.54v-34.84a43.038,43.038,0,0,1-19.49,4.3c-20.64,0-34.92-11.39-38.28-29.69l-8.57,22.11-13.19,33.71-38.3.27,13.49-34.56-20.94-55.46v-52.88H52.2v-35h11.04c2.1-18.51,13.97-29.75,32.04-29.75,6.84,0,12.53.95,16.91,2.83l5.98,2.56a21.456,21.456,0,0,1,13.8-4.79c12.15,0,21.3,9,21.3,20.95a21.3,21.3,0,0,1-1.66,8.37v0.3h27.24l5.79,7.54,5.59-7.54h58.53c0.97,0,1.92.03,2.86,0.09,12.86,0.84,22.94,7.38,27.99,17.43,6.2-9.92,16.71-17.44,31.15-18.56V53.855h39.16v105.68h-16.29l-5.81,34.56-0.01-.01c-0.22-.15-3.8-2.6-6.68-2.62C311.835,191.415,311.615,198.605,311.615,206.2Z"/><polygon class="cls-1" points="134.655 157.785 134.655 159.065 133.765 159.065 134.655 157.785"/><path class="cls-1" d="M251.615,82.415v0.09c-0.94-.06-1.89-0.09-2.86-0.09h2.86Z"/><rect class="cls-1" x="263.079" y="136.73" width="30.404" height="35.667"/><path class="cls-1" d="M190.005,228.165c-0.59.34-1.2,0.67-1.82,0.98v-0.98h1.82Z"/><path class="cls-2" d="M168.691,223.443c-15.946,0-29.037-8.806-29.037-28.323,0-18.684,11.067-31.179,29.989-31.179,19.517,0,28.68,12.614,28.68,28.561C198.323,212.852,186.185,223.443,168.691,223.443Zm0-43.793c-6.069,0-8.926,5.95-8.926,12.852,0,7.735,1.9,15.232,9.878,15.232,6.426,0,8.567-5.593,8.567-12.614C178.21,186.076,176.783,179.65,168.691,179.65Z"/><path class="cls-2" d="M211.172,165.132h19.159v34.511c0,5.593.953,8.331,4.88,8.331,7.974,0,11.306-9.044,11.306-20.112V165.132h19.277v57.122H246.517v-7.259a20.2,20.2,0,0,1-16.423,8.449c-12.614,0-18.922-6.545-18.922-21.3v-37.01Z"/><path class="cls-2" d="M313.394,182.269c-9.759,0-11.781,7.021-11.781,14.994v24.991h-19.16V165.132h19.041v6.9c3.213-5.474,8.33-8.092,14.756-8.092a17.021,17.021,0,0,1,6.308,1.19L319.462,183.7A16.246,16.246,0,0,0,313.394,182.269Z"/><path class="cls-2" d="M71.824,165.132H92.531l11.781,35.344,11.424-35.344h18.922l-22.135,57.122-10.71,27.371-16.779.119,9.521-24.4Z"/><polygon class="cls-1" points="134.655 157.785 134.655 159.535 133.445 159.535 133.765 159.065 134.655 157.785"/><path class="cls-2" d="M181.76,133.353l-10.71,16.185H152.486l20.35-29.513L154.271,92.416h21.3l9.283,13.566,8.806-13.566h18.564L193.661,119.31l20.35,30.227h-21.3Z"/><path class="cls-2" d="M270.963,145.372a50.983,50.983,0,0,1-22.491,5.355c-18.089,0-31.061-9.044-31.061-28.917,0-19.16,12.615-30.584,30.346-30.584,14.757,0,24.4,9.163,24.4,23.206a80.211,80.211,0,0,1-1.071,12.5H236.81c0.476,6.426,5.949,10,13.447,10a38.646,38.646,0,0,0,15.945-3.689Zm-17.255-31.179c0.594-5.355-2.023-9.64-7.617-9.64-5.83,0-8.925,4.76-9.281,9.64h16.9Z"/><path class="cls-2" d="M320.87,149.537v-5.712a19.669,19.669,0,0,1-14.519,6.9c-15.589,0-23.324-10.829-23.324-27.847,0-15.828,10.829-31.655,31.536-31.655a35.2,35.2,0,0,1,6.188.595V63.855h19.16v85.682H320.87Zm-0.119-41.294a16.944,16.944,0,0,0-6.664-1.309c-7.021,0-10.948,6.426-10.948,13.685,0,7.735,1.666,14.4,7.616,14.4,4.641,0,10-4.879,10-15.827V108.243Z"/><path class="cls-2" d="M72.905,149.07V106.943H62.2V91.948h10.71V88.021c0-14.161,5.95-25.824,22.373-25.824,4.879,0,9.639.6,12.971,2.023l-2.5,14.756a23.321,23.321,0,0,0-6.189-1.071c-5.235,0-7.5,2.737-7.5,7.616v6.426h13.209v14.995H92.065V149.07H72.905Z"/><path class="cls-2" d="M131.966,84.57c-6.187,0-11.187-4.046-11.187-10.829,0-6.069,4.284-10.948,11.187-10.948,6.426,0,11.3,4.284,11.3,10.948S138.391,84.57,131.966,84.57Zm9.639,64.5H122.446V91.948H141.6V149.07Z"/><path class="cls-2" d="M170.643,273.981h12.806V287.1H170.643V273.981Z"/><path class="cls-3" d="M198.674,281.655h8.27v-35.9a1.9,1.9,0,0,0-2.141-2.141h-6.615v-5.448h9.34c4.086,0,5.935,1.751,5.935,5.448v2.822a16.037,16.037,0,0,1-.39,3.5h0.2A21.662,21.662,0,0,1,233.212,237c12.063,0,16.247,6.908,16.247,18.972v25.685h8.27V287.1H242.844V257.722c0-7.686-1.266-14.5-10.7-14.5-10.8,0-18.583,9.535-18.583,20.334v18.1h8.27V287.1H198.674v-5.448Z"/><path class="cls-3" d="M287.207,237c13.523,0,20.528,10.41,20.528,22.571a27.6,27.6,0,0,1-.292,3.113H269.89c0.292,12.551,8.854,19.653,18.972,19.653a22.92,22.92,0,0,0,14.886-5.837l3.016,4.962a27.734,27.734,0,0,1-18.1,6.81c-14.594,0-25.588-10.507-25.588-25.587C263.079,246.631,273.976,237,287.207,237Zm13.621,20.82c-0.39-10.313-6.616-15.274-13.815-15.274-8.172,0-15.274,5.351-16.831,15.274h30.646Z"/><path class="cls-3" d="M321.453,243.615H312.7v-5.448h8.854V224.644h6.519v13.523h12.355v5.448H328.069v25.1c0,11.48,7.3,13.037,11.091,13.037a11.381,11.381,0,0,0,2.238-.194v5.74a18.959,18.959,0,0,1-2.821.195c-5.644,0-17.123-1.849-17.123-18.193V243.615Z"/><path class="cls-3" d="M131.965,84.57c-6.187,0-11.187-4.046-11.187-10.829,0-6.069,4.284-10.948,11.187-10.948,6.426,0,11.3,4.284,11.3,10.948S138.391,84.57,131.965,84.57Z"/></svg>