<?xml version="1.0" encoding="UTF-8" standalone="no"?>
<!-- Created with Inkscape (http://www.inkscape.org/) -->
<svg
   xmlns:svg="http://www.w3.org/2000/svg"
   xmlns="http://www.w3.org/2000/svg"
   width="701.14374"
   height="666.26874"
   preserveAspectRatio="none"
   id="svg5194">
  <defs
     id="defs3" />
  <g
     transform="translate(-24.216071,-361.14018)"
     id="layer1">
    <path
       d="M 724.45982,376.19643 C 724.06843,376.23408 723.6735,376.25893 723.27232,376.25893 C 716.51654,376.25893 711.02233,370.79596 711.02232,364.04018 C 711.02232,363.3576 711.10201,362.69263 711.20982,362.04018 L 698.80357,362.04018 C 698.91138,362.69263 698.99107,363.3576 698.99107,364.04018 C 698.99106,370.79596 693.49686,376.25893 686.74107,376.25893 C 679.98528,376.25893 674.52233,370.79596 674.52232,364.04018 C 674.52232,363.3576 674.60259,362.69263 674.70982,362.04018 L 662.30357,362.04018 C 662.41138,362.69263 662.49107,363.3576 662.49107,364.04018 C 662.49106,370.79596 656.99686,376.25893 650.24107,376.25893 C 643.48528,376.25893 637.99108,370.79596 637.99107,364.04018 C 637.99107,363.3576 638.07076,362.69263 638.17857,362.04018 L 625.77232,362.04018 C 625.88013,362.69263 625.95982,363.3576 625.95982,364.04018 C 625.9598,370.79596 620.46561,376.25893 613.70982,376.25893 C 606.95404,376.25893 601.49108,370.79596 601.49107,364.04018 C 601.49107,363.3576 601.57134,362.69263 601.67857,362.04018 L 589.24107,362.04018 C 589.3483,362.69263 589.42857,363.3576 589.42857,364.04018 C 589.42858,370.79596 583.96561,376.25893 577.20982,376.25893 C 570.45407,376.25893 564.95983,370.79596 564.95982,364.04018 C 564.95982,363.3576 565.03951,362.69263 565.14732,362.04018 L 552.74107,362.04018 C 552.84888,362.69263 552.92857,363.3576 552.92857,364.04018 C 552.92858,370.79596 547.43436,376.25893 540.67857,376.25893 C 533.92282,376.25893 528.42858,370.79596 528.42857,364.04018 C 528.42857,363.3576 528.50826,362.69263 528.61607,362.04018 L 516.20982,362.04018 C 516.31705,362.69263 516.39732,363.3576 516.39732,364.04018 C 516.39734,370.79596 510.93436,376.25893 504.17857,376.25893 C 497.42279,376.25893 491.92858,370.79596 491.92857,364.04018 C 491.92857,363.3576 492.00826,362.69263 492.11607,362.04018 L 479.70982,362.04018 C 479.81763,362.69263 479.89732,363.3576 479.89732,364.04018 C 479.89733,370.79596 474.40311,376.25893 467.64732,376.25893 C 460.89157,376.25893 455.39733,370.79596 455.39732,364.04018 C 455.39732,363.3576 455.47701,362.69263 455.58482,362.04018 L 443.17857,362.04018 C 443.28638,362.69263 443.36607,363.3576 443.36607,364.04018 C 443.36608,370.79596 437.87186,376.25893 431.11607,376.25893 C 424.36031,376.25893 418.89733,370.79596 418.89732,364.04018 C 418.89732,363.3576 418.97759,362.69263 419.08482,362.04018 L 406.64732,362.04018 C 406.75455,362.69263 406.83482,363.3576 406.83482,364.04018 C 406.83483,370.79596 401.37183,376.25893 394.61607,376.25893 C 387.86031,376.25893 382.36605,370.79596 382.36607,364.04018 C 382.36607,363.3576 382.44576,362.69263 382.55357,362.04018 L 370.14732,362.04018 C 370.25513,362.69263 370.33482,363.3576 370.33482,364.04018 C 370.33481,370.79596 364.84058,376.25893 358.08482,376.25893 C 351.32907,376.25893 345.86605,370.79596 345.86607,364.04018 C 345.86607,363.3576 345.94634,362.69263 346.05357,362.04018 L 333.61607,362.04018 C 333.7233,362.69263 333.80357,363.3576 333.80357,364.04018 C 333.80358,370.79596 328.34058,376.25893 321.58482,376.25893 C 314.82903,376.25893 309.3348,370.79596 309.33482,364.04018 C 309.33482,363.3576 309.41451,362.69263 309.52232,362.04018 L 297.11607,362.04018 C 297.22388,362.69263 297.30357,363.3576 297.30357,364.04018 C 297.30358,370.79596 291.80933,376.25893 285.05357,376.25893 C 278.29778,376.25893 272.80355,370.79596 272.80357,364.04018 C 272.80357,363.3576 272.88326,362.69263 272.99107,362.04018 L 260.58482,362.04018 C 260.69263,362.69263 260.77232,363.3576 260.77232,364.04018 C 260.77231,370.79596 255.27808,376.25893 248.52232,376.25893 C 241.76657,376.25893 236.30355,370.79596 236.30357,364.04018 C 236.30357,363.3576 236.38384,362.69263 236.49107,362.04018 L 224.08482,362.04018 C 224.19263,362.69263 224.27232,363.3576 224.27232,364.04018 C 224.2723,370.79596 218.77808,376.25893 212.02232,376.25893 C 205.26656,376.25893 199.7723,370.79596 199.77232,364.04018 C 199.77232,363.3576 199.85201,362.69263 199.95982,362.04018 L 187.55357,362.04018 C 187.66138,362.69263 187.74107,363.3576 187.74107,364.04018 C 187.74109,370.79596 182.24683,376.25893 175.49107,376.25893 C 168.73529,376.25893 163.2723,370.79596 163.27232,364.04018 C 163.27232,363.3576 163.35259,362.69263 163.45982,362.04018 L 151.02232,362.04018 C 151.12955,362.69263 151.20982,363.3576 151.20982,364.04018 C 151.20983,370.79596 145.74683,376.25893 138.99107,376.25893 C 132.23528,376.25893 126.74105,370.79596 126.74107,364.04018 C 126.74107,363.3576 126.82076,362.69263 126.92857,362.04018 L 114.52232,362.04018 C 114.63013,362.69263 114.70982,363.3576 114.70982,364.04018 C 114.70981,370.79596 109.21558,376.25893 102.45982,376.25893 C 95.704071,376.25893 90.209801,370.79596 90.209821,364.04018 C 90.209821,363.3576 90.289511,362.69263 90.397321,362.04018 L 77.991071,362.04018 C 78.098301,362.69263 78.178571,363.3576 78.178571,364.04018 C 78.178561,370.79596 72.715581,376.25893 65.959821,376.25893 C 59.204071,376.25893 53.709801,370.79596 53.709821,364.04018 C 53.709821,363.3576 53.789511,362.69263 53.897321,362.04018 L 39.522321,362.04018 C 39.630131,362.69263 39.709821,363.3576 39.709821,364.04018 C 39.709861,370.4369 34.779661,375.65585 28.522321,376.19643 C 28.141831,376.23511 27.756001,376.25597 27.366071,376.25893 C 26.976131,376.25597 26.590301,376.23511 26.209821,376.19643 C 25.839501,376.16444 25.476141,376.10422 25.116071,376.04018 L 25.116071,388.54018 C 25.874141,388.3937 26.659281,388.32143 27.459821,388.32143 C 34.215621,388.32143 39.709801,393.7844 39.709821,400.54018 C 39.709861,407.29596 34.215581,412.79018 27.459821,412.79018 C 26.659281,412.79018 25.874141,412.71868 25.116071,412.57143 L 25.116071,425.04018 C 25.874141,424.89293 26.659281,424.82143 27.459821,424.82143 C 34.215621,424.82143 39.709801,430.31565 39.709821,437.07143 C 39.709861,443.82721 34.215581,449.29018 27.459821,449.29018 C 26.659281,449.29018 25.874141,449.21791 25.116071,449.07143 L 25.116071,461.57143 C 25.874141,461.42495 26.659281,461.35268 27.459821,461.35268 C 34.215621,461.35269 39.709801,466.81566 39.709821,473.57143 C 39.709861,480.32722 34.215581,485.82144 27.459821,485.82143 C 26.659281,485.82143 25.874141,485.74993 25.116071,485.60268 L 25.116071,498.07143 C 25.874141,497.92418 26.659281,497.85268 27.459821,497.85268 C 34.215621,497.85269 39.709801,503.34691 39.709821,510.10268 C 39.709861,516.85847 34.215581,522.35269 27.459821,522.35268 C 26.659281,522.35268 25.874141,522.28118 25.116071,522.13393 L 25.116071,534.60268 C 25.874141,534.4562 26.659281,534.38393 27.459821,534.38393 C 34.215621,534.38394 39.709801,539.84691 39.709821,546.60268 C 39.709861,553.35847 34.215581,558.85269 27.459821,558.85268 C 26.659281,558.85268 25.874141,558.78118 25.116071,558.63393 L 25.116071,571.10268 C 25.874141,570.95543 26.659281,570.88393 27.459821,570.88393 C 34.215621,570.88394 39.709801,576.37816 39.709821,583.13393 C 39.709861,589.88972 34.215581,595.38394 27.459821,595.38393 C 26.659281,595.38393 25.874141,595.31243 25.116071,595.16518 L 25.116071,607.63393 C 25.874141,607.48668 26.659281,607.41518 27.459821,607.41518 C 34.215621,607.4152 39.709801,612.90941 39.709821,619.66518 C 39.709861,626.42097 34.215581,631.88394 27.459821,631.88393 C 26.659281,631.88393 25.874141,631.81166 25.116071,631.66518 L 25.116071,644.16518 C 25.874141,644.0187 26.659281,643.94643 27.459821,643.94643 C 34.215621,643.94645 39.709801,649.40941 39.709821,656.16518 C 39.709861,662.92097 34.215581,668.41519 27.459821,668.41518 C 26.659281,668.41518 25.874141,668.34368 25.116071,668.19643 L 25.116071,680.66518 C 25.874141,680.51793 26.659281,680.44643 27.459821,680.44643 C 34.215621,680.44644 39.709801,685.94066 39.709821,692.69643 C 39.709861,699.45221 34.215581,704.91519 27.459821,704.91518 C 26.659281,704.91518 25.874141,704.84291 25.116071,704.69643 L 25.116071,717.19643 C 25.874141,717.04995 26.659281,716.97768 27.459821,716.97768 C 34.215621,716.9777 39.709801,722.44066 39.709821,729.19643 C 39.709861,735.95222 34.215581,741.44644 27.459821,741.44643 C 26.659281,741.44643 25.874141,741.37493 25.116071,741.22768 L 25.116071,753.69643 C 25.874141,753.54918 26.659281,753.47768 27.459821,753.47768 C 34.215621,753.4777 39.709801,758.97191 39.709821,765.72768 C 39.709861,772.48347 34.215581,777.97769 27.459821,777.97768 C 26.659281,777.97768 25.874141,777.90618 25.116071,777.75893 L 25.116071,790.22768 C 25.874141,790.08043 26.659281,790.00893 27.459821,790.00893 C 34.215621,790.00894 39.709801,795.50316 39.709821,802.25893 C 39.709861,809.01471 34.215581,814.47769 27.459821,814.47768 C 26.659281,814.47768 25.874141,814.40541 25.116071,814.25893 L 25.116071,826.75893 C 25.874141,826.61245 26.659281,826.54018 27.459821,826.54018 C 34.215621,826.54017 39.709801,832.00316 39.709821,838.75893 C 39.709861,845.51466 34.215581,851.00891 27.459821,851.00893 C 26.659281,851.00893 25.874141,850.93743 25.116071,850.79018 L 25.116071,863.25893 C 25.874141,863.11168 26.659281,863.04018 27.459821,863.04018 C 34.215621,863.04013 39.709801,868.53438 39.709821,875.29018 C 39.709861,882.04593 34.215581,887.50891 27.459821,887.50893 C 26.659281,887.50893 25.874141,887.43666 25.116071,887.29018 L 25.116071,899.79018 C 25.874141,899.6437 26.659281,899.57143 27.459821,899.57143 C 34.215621,899.57139 39.709801,905.03438 39.709821,911.79018 C 39.709861,918.54594 34.215581,924.04016 27.459821,924.04018 C 26.659281,924.04018 25.874141,923.96868 25.116071,923.82143 L 25.116071,936.29018 C 25.874141,936.14293 26.659281,936.07143 27.459821,936.07143 C 34.215621,936.07141 39.709801,941.56563 39.709821,948.32143 C 39.709861,955.07721 34.215581,960.57141 27.459821,960.57143 C 26.659281,960.57142 25.874141,960.49994 25.116071,960.35268 L 25.116071,972.82143 C 25.874141,972.67495 26.659281,972.60268 27.459821,972.60268 C 34.215621,972.60266 39.709801,978.06563 39.709821,984.82143 C 39.709861,991.57721 34.215581,997.07141 27.459821,997.07143 C 26.659281,997.07142 25.874141,996.99994 25.116071,996.85268 L 25.116071,1011.5089 C 25.815501,1011.3842 26.536861,1011.3214 27.272321,1011.3214 C 34.028091,1011.3214 39.522301,1016.8156 39.522321,1023.5714 C 39.522321,1024.5942 39.384491,1025.5587 39.147321,1026.5089 L 51.928571,1026.5089 C 51.691901,1025.5596 51.553571,1024.5931 51.553571,1023.5714 C 51.553561,1016.8156 57.047771,1011.3214 63.803571,1011.3214 C 70.559361,1011.3214 76.022301,1016.8156 76.022321,1023.5714 C 76.022321,1024.5942 75.883271,1025.5587 75.647321,1026.5089 L 88.459821,1026.5089 C 88.224361,1025.5596 88.084821,1024.5931 88.084821,1023.5714 C 88.084841,1016.8156 93.547771,1011.3214 100.30357,1011.3214 C 107.05933,1011.3214 112.55355,1016.8156 112.55357,1023.5714 C 112.55357,1024.5942 112.41574,1025.5587 112.17857,1026.5089 L 124.95982,1026.5089 C 124.72315,1025.5596 124.58482,1024.5931 124.58482,1023.5714 C 124.58483,1016.8156 130.07902,1011.3214 136.83482,1011.3214 C 143.59062,1011.3214 149.0848,1016.8156 149.08482,1023.5714 C 149.08482,1024.5942 148.94699,1025.5587 148.70982,1026.5089 L 161.49107,1026.5089 C 161.2544,1025.5596 161.11607,1024.5931 161.11607,1023.5714 C 161.1161,1016.8156 166.61027,1011.3214 173.36607,1011.3214 C 180.12183,1011.3214 185.5848,1016.8156 185.58482,1023.5714 C 185.58482,1024.5942 185.44577,1025.5587 185.20982,1026.5089 L 197.99107,1026.5089 C 197.7544,1025.5596 197.61607,1024.5931 197.61607,1023.5714 C 197.61607,1016.8156 203.11027,1011.3214 209.86607,1011.3214 C 216.62186,1011.3214 222.11605,1016.8156 222.11607,1023.5714 C 222.11608,1024.5942 221.97824,1025.5587 221.74107,1026.5089 L 234.52232,1026.5089 C 234.28565,1025.5596 234.14732,1024.5931 234.14732,1023.5714 C 234.14731,1016.8156 239.64152,1011.3214 246.39732,1011.3214 C 253.1531,1011.3214 258.61605,1016.8156 258.61607,1023.5714 C 258.61607,1024.5942 258.47702,1025.5587 258.24107,1026.5089 L 271.05357,1026.5089 C 270.81811,1025.5596 270.67857,1024.5931 270.67857,1023.5714 C 270.6786,1016.8156 276.14152,1011.3214 282.89732,1011.3214 C 289.65308,1011.3214 295.1473,1016.8156 295.14732,1023.5714 C 295.14732,1024.5942 295.00949,1025.5587 294.77232,1026.5089 L 307.55357,1026.5089 C 307.3169,1025.5596 307.17857,1024.5931 307.17857,1023.5714 C 307.1786,1016.8156 312.67277,1011.3214 319.42857,1011.3214 C 326.18433,1011.3214 331.67855,1016.8156 331.67857,1023.5714 C 331.67857,1024.5942 331.54074,1025.5587 331.30357,1026.5089 L 344.08482,1026.5089 C 343.84936,1025.5596 343.70982,1024.5931 343.70982,1023.5714 C 343.70982,1016.8156 349.17277,1011.3214 355.92857,1011.3214 C 362.68436,1011.3214 368.17855,1016.8156 368.17857,1023.5714 C 368.17858,1024.5942 368.04074,1025.5587 367.80357,1026.5089 L 380.58482,1026.5089 C 380.34815,1025.5596 380.20982,1024.5931 380.20982,1023.5714 C 380.20981,1016.8156 385.70402,1011.3214 392.45982,1011.3214 C 399.2156,1011.3214 404.70983,1016.8156 404.70982,1023.5714 C 404.70982,1024.5942 404.57199,1025.5587 404.33482,1026.5089 L 417.11607,1026.5089 C 416.8794,1025.5596 416.74107,1024.5931 416.74107,1023.5714 C 416.74107,1016.8156 422.2353,1011.3214 428.99107,1011.3214 C 435.74686,1011.3214 441.20983,1016.8156 441.20982,1023.5714 C 441.20982,1024.5942 441.07077,1025.5587 440.83482,1026.5089 L 453.64732,1026.5089 C 453.41186,1025.5596 453.27232,1024.5931 453.27232,1023.5714 C 453.27232,1016.8156 458.7353,1011.3214 465.49107,1011.3214 C 472.24686,1011.3214 477.74108,1016.8156 477.74107,1023.5714 C 477.74107,1024.5942 477.60324,1025.5587 477.36607,1026.5089 L 490.14732,1026.5089 C 489.91065,1025.5596 489.77232,1024.5931 489.77232,1023.5714 C 489.77234,1016.8156 495.26655,1011.3214 502.02232,1011.3214 C 508.7781,1011.3214 514.24108,1016.8156 514.24107,1023.5714 C 514.24107,1024.5942 514.10202,1025.5587 513.86607,1026.5089 L 526.67857,1026.5089 C 526.44311,1025.5596 526.30357,1024.5931 526.30357,1023.5714 C 526.30357,1016.8156 531.76655,1011.3214 538.52232,1011.3214 C 545.27812,1011.3214 550.77233,1016.8156 550.77232,1023.5714 C 550.77232,1024.5942 550.63449,1025.5587 550.39732,1026.5089 L 563.17857,1026.5089 C 562.9419,1025.5596 562.80357,1024.5931 562.80357,1023.5714 C 562.80359,1016.8156 568.2978,1011.3214 575.05357,1011.3214 C 581.80936,1011.3214 587.30358,1016.8156 587.30357,1023.5714 C 587.30357,1024.5942 587.16574,1025.5587 586.92857,1026.5089 L 599.70982,1026.5089 C 599.47315,1025.5596 599.33482,1024.5931 599.33482,1023.5714 C 599.33482,1016.8156 604.82905,1011.3214 611.58482,1011.3214 C 618.3406,1011.3214 623.80358,1016.8156 623.80357,1023.5714 C 623.80357,1024.5942 623.66452,1025.5587 623.42857,1026.5089 L 636.20982,1026.5089 C 635.97315,1025.5596 635.83482,1024.5931 635.83482,1023.5714 C 635.83482,1016.8156 641.32905,1011.3214 648.08482,1011.3214 C 654.84059,1011.3214 660.33483,1016.8156 660.33482,1023.5714 C 660.33482,1024.5942 660.19699,1025.5587 659.95982,1026.5089 L 672.74107,1026.5089 C 672.5044,1025.5596 672.36607,1024.5931 672.36607,1023.5714 C 672.36605,1016.8156 677.8603,1011.3214 684.61607,1011.3214 C 691.37184,1011.3214 696.83483,1016.8156 696.83482,1023.5714 C 696.83482,1024.5942 696.69577,1025.5587 696.45982,1026.5089 L 711.24107,1026.5089 C 711.00554,1025.5602 710.86607,1024.5931 710.86607,1023.5714 C 710.86607,1017.1747 715.76498,1011.9245 722.02232,1011.3839 C 722.37204,1011.3484 722.72706,1011.3268 723.08482,1011.3214 C 723.1164,1011.3214 723.14705,1011.3212 723.17857,1011.3214 C 723.21009,1011.3212 723.24074,1011.3214 723.27232,1011.3214 C 723.6735,1011.3214 724.06843,1011.3461 724.45982,1011.3839 L 724.45982,999.19643 C 724.00706,999.24736 723.55099,999.29018 723.08482,999.29018 C 716.32902,999.29016 710.86608,993.79594 710.86607,987.04018 C 710.86607,980.28436 716.32905,974.82141 723.08482,974.82143 C 723.55099,974.82143 724.00706,974.86453 724.45982,974.91518 L 724.45982,962.66518 C 724.00706,962.71583 723.55099,962.75893 723.08482,962.75893 C 716.32902,962.75893 710.86608,957.29594 710.86607,950.54018 C 710.86607,943.78438 716.32905,938.29016 723.08482,938.29018 C 723.55099,938.29018 724.00706,938.333 724.45982,938.38393 L 724.45982,926.16518 C 724.00706,926.21611 723.55099,926.25893 723.08482,926.25893 C 716.32902,926.25891 710.86608,920.76469 710.86607,914.00893 C 710.86607,907.25311 716.32905,901.79016 723.08482,901.79018 C 723.55099,901.79018 724.00706,901.83328 724.45982,901.88393 L 724.45982,889.63393 C 724.00706,889.68458 723.55099,889.72768 723.08482,889.72768 C 716.32902,889.72763 710.86608,884.26469 710.86607,877.50893 C 710.86607,870.75314 716.32905,865.25891 723.08482,865.25893 C 723.55099,865.25893 724.00706,865.30175 724.45982,865.35268 L 724.45982,853.13393 C 724.00706,853.18486 723.55099,853.22768 723.08482,853.22768 C 716.32902,853.22764 710.86608,847.73344 710.86607,840.97768 C 710.86607,834.2219 716.32905,828.72769 723.08482,828.72768 C 723.55099,828.72768 724.00706,828.7705 724.45982,828.82143 L 724.45982,816.60268 C 724.00706,816.65333 723.55099,816.69643 723.08482,816.69643 C 716.32902,816.69644 710.86608,811.23347 710.86607,804.47768 C 710.86607,797.72192 716.32905,792.22769 723.08482,792.22768 C 723.55099,792.22768 724.00706,792.2705 724.45982,792.32143 L 724.45982,780.10268 C 724.00706,780.15361 723.55099,780.19643 723.08482,780.19643 C 716.32902,780.19644 710.86608,774.70222 710.86607,767.94643 C 710.86607,761.19067 716.32905,755.69644 723.08482,755.69643 C 723.55099,755.69643 724.00706,755.73925 724.45982,755.79018 L 724.45982,743.57143 C 724.00706,743.62236 723.55099,743.66518 723.08482,743.66518 C 716.32902,743.66519 710.86608,738.17097 710.86607,731.41518 C 710.86607,724.65942 716.32905,719.19644 723.08482,719.19643 C 723.55099,719.19643 724.00706,719.23953 724.45982,719.29018 L 724.45982,707.04018 C 724.00706,707.09083 723.55099,707.13393 723.08482,707.13393 C 716.32902,707.13395 710.86608,701.67097 710.86607,694.91518 C 710.86607,688.1594 716.32905,682.66519 723.08482,682.66518 C 723.55099,682.66518 724.00706,682.708 724.45982,682.75893 L 724.45982,670.54018 C 724.00706,670.59111 723.55099,670.63393 723.08482,670.63393 C 716.32902,670.63394 710.86608,665.13972 710.86607,658.38393 C 710.86607,651.62817 716.32905,646.16519 723.08482,646.16518 C 723.55099,646.16518 724.00706,646.20828 724.45982,646.25893 L 724.45982,634.00893 C 724.00706,634.05958 723.55099,634.10268 723.08482,634.10268 C 716.32902,634.10269 710.86608,628.63972 710.86607,621.88393 C 710.86607,615.12817 716.32905,609.63394 723.08482,609.63393 C 723.55099,609.63393 724.00706,609.67675 724.45982,609.72768 L 724.45982,597.50893 C 724.00706,597.55986 723.55099,597.60268 723.08482,597.60268 C 716.32902,597.6027 710.86608,592.10847 710.86607,585.35268 C 710.86607,578.5969 716.32905,573.10269 723.08482,573.10268 C 723.55099,573.10268 724.00706,573.1455 724.45982,573.19643 L 724.45982,560.97768 C 724.00706,561.02861 723.55099,561.07143 723.08482,561.07143 C 716.32902,561.07144 710.86608,555.57722 710.86607,548.82143 C 710.86607,542.06566 716.32905,536.60269 723.08482,536.60268 C 723.55099,536.60268 724.00706,536.64578 724.45982,536.69643 L 724.45982,524.44643 C 724.00706,524.49708 723.55099,524.54018 723.08482,524.54018 C 716.32902,524.54018 710.86608,519.07722 710.86607,512.32143 C 710.86607,505.56567 716.32905,500.07144 723.08482,500.07143 C 723.55099,500.07143 724.00706,500.11425 724.45982,500.16518 L 724.45982,487.94643 C 724.00706,487.99736 723.55099,488.04018 723.08482,488.04018 C 716.32902,488.04019 710.86608,482.54597 710.86607,475.79018 C 710.86607,469.03441 716.32905,463.57144 723.08482,463.57143 C 723.55099,463.57143 724.00706,463.61453 724.45982,463.66518 L 724.45982,451.41518 C 724.00706,451.46583 723.55099,451.50893 723.08482,451.50893 C 716.32902,451.50894 710.86608,446.04596 710.86607,439.29018 C 710.86607,432.53441 716.32905,427.04018 723.08482,427.04018 C 723.55099,427.04018 724.00706,427.083 724.45982,427.13393 L 724.45982,414.91518 C 724.00706,414.96611 723.55099,415.00893 723.08482,415.00893 C 716.32902,415.00893 710.86608,409.51471 710.86607,402.75893 C 710.86607,396.00315 716.32905,390.50893 723.08482,390.50893 C 723.55099,390.50893 724.00706,390.55175 724.45982,390.60268 L 724.45982,376.19643 z"
       id="path6076"
       style="fill:none;fill-opacity:1;fill-rule:nonzero;stroke:#DEA241;stroke-width:10;stroke-linecap:butt;stroke-linejoin:miter;marker:none;marker-start:none;marker-mid:none;marker-end:none;stroke-miterlimit:4;stroke-dasharray:none;stroke-dashoffset:0;stroke-opacity:1;visibility:visible;display:inline;overflow:visible;enable-background:accumulate" />
  </g>
</svg>
